<svg width="16" height="12" viewBox="0 0 16 12" fill="none" xmlns="http://www.w3.org/2000/svg">
<path d="M14 0H2C1.4375 0.020833 0.96875 0.21875 0.59375 0.59375C0.21875 0.96875 0.0208333 1.4375 0 2V10C0.0208333 10.5625 0.21875 11.0312 0.59375 11.4062C0.96875 11.7812 1.4375 11.9792 2 12H14C14.5625 11.9792 15.0312 11.7812 15.4062 11.4062C15.7812 11.0312 15.9792 10.5625 16 10V2C15.9792 1.4375 15.7812 0.96875 15.4062 0.59375C15.0312 0.21875 14.5625 0.020833 14 0ZM2 1H14C14.2917 1 14.5312 1.09375 14.7188 1.28125C14.9062 1.46875 15 1.70833 15 2V3.125L8.90625 7.6875C8.63542 7.89583 8.33333 8 8 8C7.66667 8 7.36458 7.89583 7.09375 7.6875L1 3.125V2C1 1.70833 1.09375 1.46875 1.28125 1.28125C1.46875 1.09375 1.70833 1 2 1ZM15 10C15 10.2917 14.9062 10.5312 14.7188 10.7188C14.5312 10.9062 14.2917 11 14 11H2C1.70833 11 1.46875 10.9062 1.28125 10.7188C1.09375 10.5312 1 10.2917 1 10V4.34375L6.5 8.5C6.95833 8.83333 7.45833 9 8 9C8.54167 9 9.04167 8.83333 9.5 8.5L15 4.34375V10Z" fill="#F97A77"/>
</svg>
