<svg width="250" height="42" viewBox="0 0 250 42" fill="none" xmlns="http://www.w3.org/2000/svg">
<path d="M17 4L18.0528 7.91012C19.6335 13.7808 24.2192 18.3665 30.0899 19.9472L34 21L30.0899 22.0528C24.2192 23.6335 19.6335 28.2192 18.0528 34.0899L17 38L15.9472 34.0899C14.3665 28.2192 9.78081 23.6335 3.91012 22.0528L0 21L3.91012 19.9472C9.78081 18.3665 14.3665 13.7808 15.9472 7.91012L17 4Z" fill="url(#paint0_linear_150_499)"/>
<path d="M43.2089 30.5V29.492H43.5209C43.8889 29.492 44.2169 29.452 44.5049 29.372C44.8089 29.292 45.0489 29.132 45.2249 28.892C45.4009 28.636 45.4889 28.26 45.4889 27.764V16.004C45.4889 15.524 45.3929 15.172 45.2009 14.948C45.0249 14.708 44.7849 14.556 44.4809 14.492C44.1929 14.412 43.8729 14.372 43.5209 14.372H43.2089V13.364H50.5529C52.2009 13.364 53.6089 13.7 54.7769 14.372C55.9449 15.028 56.8329 15.996 57.4409 17.276C58.0649 18.54 58.3769 20.084 58.3769 21.908C58.3769 23.652 58.0809 25.172 57.4889 26.468C56.9129 27.748 56.0489 28.74 54.8969 29.444C53.7449 30.148 52.2969 30.5 50.5529 30.5H43.2089ZM50.0009 29.276C51.2809 29.276 52.3369 28.996 53.1689 28.436C54.0169 27.86 54.6489 27.028 55.0649 25.94C55.4969 24.836 55.7129 23.492 55.7129 21.908C55.7129 20.324 55.4969 18.988 55.0649 17.9C54.6489 16.812 54.0169 15.988 53.1689 15.428C52.3369 14.852 51.2889 14.564 50.0249 14.564H47.9129V29.276H50.0009ZM60.2864 30.5V29.492H60.5984C60.9504 29.492 61.2704 29.46 61.5584 29.396C61.8624 29.316 62.1024 29.164 62.2784 28.94C62.4704 28.7 62.5664 28.348 62.5664 27.884V20.276C62.5664 19.796 62.4704 19.444 62.2784 19.22C62.1024 18.98 61.8624 18.828 61.5584 18.764C61.2704 18.684 60.9504 18.644 60.5984 18.644H60.5264V17.636H64.8224V27.764C64.8224 28.26 64.9104 28.636 65.0864 28.892C65.2624 29.132 65.5024 29.292 65.8064 29.372C66.1104 29.452 66.4384 29.492 66.7904 29.492H67.1024V30.5H60.2864ZM63.5984 15.236C63.2144 15.236 62.8864 15.124 62.6144 14.9C62.3584 14.676 62.2304 14.292 62.2304 13.748C62.2304 13.188 62.3584 12.804 62.6144 12.596C62.8864 12.372 63.2144 12.26 63.5984 12.26C63.9664 12.26 64.2864 12.372 64.5584 12.596C64.8304 12.804 64.9664 13.188 64.9664 13.748C64.9664 14.292 64.8304 14.676 64.5584 14.9C64.2864 15.124 63.9664 15.236 63.5984 15.236ZM72.3419 30.74C71.6379 30.74 70.9979 30.604 70.4219 30.332C69.8619 30.044 69.4219 29.62 69.1019 29.06C68.7819 28.484 68.6219 27.764 68.6219 26.9C68.6219 25.62 69.0699 24.676 69.9659 24.068C70.8779 23.46 72.2539 23.124 74.0939 23.06L76.0859 22.988V21.548C76.0859 20.972 76.0379 20.468 75.9419 20.036C75.8459 19.588 75.6379 19.236 75.3179 18.98C74.9979 18.724 74.5099 18.596 73.8539 18.596C73.2459 18.596 72.7819 18.708 72.4619 18.932C72.1419 19.156 71.9259 19.468 71.8139 19.868C71.7179 20.252 71.6699 20.7 71.6699 21.212C70.9979 21.212 70.4859 21.1 70.1339 20.876C69.7979 20.636 69.6299 20.244 69.6299 19.7C69.6299 19.14 69.8219 18.692 70.2059 18.356C70.6059 18.02 71.1339 17.78 71.7899 17.636C72.4459 17.476 73.1659 17.396 73.9499 17.396C75.4219 17.396 76.5179 17.708 77.2379 18.332C77.9739 18.956 78.3419 20.028 78.3419 21.548V27.764C78.3419 28.212 78.3899 28.564 78.4859 28.82C78.5819 29.06 78.7419 29.236 78.9659 29.348C79.1899 29.444 79.4779 29.492 79.8299 29.492H79.9019V30.5H76.6619L76.2779 28.436H76.0859C75.7499 28.884 75.4219 29.284 75.1019 29.636C74.7819 29.972 74.4059 30.244 73.9739 30.452C73.5579 30.644 73.0139 30.74 72.3419 30.74ZM72.8939 29.252C73.5499 29.252 74.1099 29.116 74.5739 28.844C75.0539 28.572 75.4219 28.188 75.6779 27.692C75.9499 27.18 76.0859 26.588 76.0859 25.916V23.972L74.5499 24.044C73.6379 24.076 72.9179 24.212 72.3899 24.452C71.8779 24.692 71.5099 25.028 71.2859 25.46C71.0619 25.876 70.9499 26.396 70.9499 27.02C70.9499 27.516 71.0219 27.932 71.1659 28.268C71.3099 28.588 71.5259 28.836 71.8139 29.012C72.1019 29.172 72.4619 29.252 72.8939 29.252ZM81.2573 30.5V29.492H81.5693C81.9373 29.492 82.2653 29.452 82.5533 29.372C82.8573 29.292 83.0973 29.132 83.2733 28.892C83.4493 28.636 83.5373 28.26 83.5373 27.764V14.9C83.5373 14.42 83.4413 14.068 83.2493 13.844C83.0733 13.604 82.8333 13.452 82.5293 13.388C82.2413 13.308 81.9213 13.268 81.5693 13.268H81.2573V12.26H85.7933V27.764C85.7933 28.26 85.8813 28.636 86.0573 28.892C86.2333 29.132 86.4733 29.292 86.7773 29.372C87.0813 29.452 87.4093 29.492 87.7613 29.492H88.0733V30.5H81.2573ZM88.927 30.5V29.492H89.239C89.591 29.492 89.911 29.46 90.199 29.396C90.503 29.316 90.743 29.164 90.919 28.94C91.111 28.7 91.207 28.348 91.207 27.884V20.276C91.207 19.796 91.111 19.444 90.919 19.22C90.743 18.98 90.503 18.828 90.199 18.764C89.911 18.684 89.591 18.644 89.239 18.644H89.167V17.636H93.463V27.764C93.463 28.26 93.551 28.636 93.727 28.892C93.903 29.132 94.143 29.292 94.447 29.372C94.751 29.452 95.079 29.492 95.431 29.492H95.743V30.5H88.927ZM92.239 15.236C91.855 15.236 91.527 15.124 91.255 14.9C90.999 14.676 90.871 14.292 90.871 13.748C90.871 13.188 90.999 12.804 91.255 12.596C91.527 12.372 91.855 12.26 92.239 12.26C92.607 12.26 92.927 12.372 93.199 12.596C93.471 12.804 93.607 13.188 93.607 13.748C93.607 14.292 93.471 14.676 93.199 14.9C92.927 15.124 92.607 15.236 92.239 15.236ZM102.855 30.74C101.799 30.74 100.855 30.516 100.023 30.068C99.2065 29.62 98.5585 28.916 98.0785 27.956C97.6145 26.98 97.3825 25.708 97.3825 24.14C97.3825 22.428 97.6145 21.084 98.0785 20.108C98.5585 19.116 99.1985 18.42 99.9985 18.02C100.815 17.604 101.727 17.396 102.735 17.396C103.407 17.396 104.063 17.484 104.703 17.66C105.343 17.836 105.871 18.108 106.287 18.476C106.703 18.828 106.911 19.284 106.911 19.844C106.911 20.212 106.831 20.508 106.671 20.732C106.511 20.956 106.271 21.116 105.951 21.212C105.647 21.308 105.255 21.356 104.775 21.356C104.775 20.844 104.711 20.38 104.583 19.964C104.471 19.548 104.271 19.22 103.983 18.98C103.695 18.724 103.279 18.596 102.735 18.596C102.127 18.596 101.591 18.756 101.127 19.076C100.679 19.396 100.327 19.956 100.071 20.756C99.8305 21.556 99.7105 22.676 99.7105 24.116C99.7105 25.252 99.8305 26.196 100.071 26.948C100.327 27.7 100.719 28.26 101.247 28.628C101.775 28.996 102.471 29.18 103.335 29.18C103.831 29.18 104.287 29.108 104.703 28.964C105.119 28.82 105.479 28.62 105.783 28.364C106.103 28.108 106.351 27.82 106.527 27.5C106.655 27.596 106.751 27.724 106.815 27.884C106.895 28.028 106.935 28.212 106.935 28.436C106.935 28.804 106.783 29.164 106.479 29.516C106.175 29.868 105.719 30.164 105.111 30.404C104.519 30.628 103.767 30.74 102.855 30.74ZM112.915 30.74C112.115 30.74 111.419 30.644 110.827 30.452C110.235 30.26 109.771 29.98 109.435 29.612C109.115 29.228 108.955 28.756 108.955 28.196C108.955 27.764 109.043 27.428 109.219 27.188C109.395 26.948 109.595 26.78 109.819 26.684C110.059 26.588 110.275 26.54 110.467 26.54C110.467 27.1 110.547 27.612 110.707 28.076C110.867 28.54 111.139 28.908 111.523 29.18C111.907 29.452 112.419 29.588 113.059 29.588C113.907 29.588 114.555 29.388 115.003 28.988C115.467 28.572 115.699 28.044 115.699 27.404C115.699 27.004 115.611 26.676 115.435 26.42C115.275 26.164 114.979 25.916 114.547 25.676C114.131 25.42 113.531 25.124 112.747 24.788C111.931 24.42 111.251 24.068 110.707 23.732C110.179 23.38 109.779 22.98 109.507 22.532C109.251 22.068 109.123 21.492 109.123 20.804C109.123 19.716 109.531 18.884 110.347 18.308C111.179 17.716 112.275 17.42 113.635 17.42C114.403 17.42 115.043 17.524 115.555 17.732C116.083 17.924 116.475 18.188 116.731 18.524C117.003 18.86 117.139 19.228 117.139 19.628C117.139 20.06 116.987 20.412 116.683 20.684C116.395 20.94 115.971 21.068 115.411 21.068C115.411 20.268 115.243 19.644 114.907 19.196C114.571 18.748 114.051 18.524 113.347 18.524C112.803 18.524 112.363 18.604 112.027 18.764C111.691 18.924 111.443 19.148 111.283 19.436C111.139 19.724 111.067 20.06 111.067 20.444C111.067 20.844 111.163 21.18 111.355 21.452C111.563 21.724 111.883 21.98 112.315 22.22C112.763 22.444 113.339 22.7 114.043 22.988C114.891 23.34 115.579 23.692 116.107 24.044C116.635 24.396 117.019 24.804 117.259 25.268C117.515 25.732 117.643 26.3 117.643 26.972C117.643 28.22 117.211 29.164 116.347 29.804C115.483 30.428 114.339 30.74 112.915 30.74Z" fill="black"/>
<defs>
<linearGradient id="paint0_linear_150_499" x1="3.51724" y1="20.062" x2="33.4138" y2="21.2344" gradientUnits="userSpaceOnUse">
<stop stop-color="#A554EF"/>
<stop offset="0.5" stop-color="#FA7A77"/>
<stop offset="1" stop-color="#FE4A97"/>
</linearGradient>
</defs>
</svg>
